<svg width="864" height="917" viewBox="0 0 755 735" fill="none" xmlns="http://www.w3.org/2000/svg">
    <circle cx="10" cy="10" r="10" transform="matrix(0.260871 0.965374 0.965374 -0.260871 0.202637 179.438)" fill="black"/>
    <circle cx="10" cy="10" r="10" transform="matrix(0.260871 0.965374 0.965374 -0.260871 130.647 164.159)" fill="black"/>
    <circle cx="10" cy="10" r="10" transform="matrix(0.260871 0.965374 0.965374 -0.260871 50.065 240.857)" fill="black"/>
    <circle cx="10" cy="10" r="10" transform="matrix(0.260871 0.965374 0.965374 -0.260871 172.183 247.197)" fill="black"/>
    <circle cx="10" cy="10" r="10" transform="matrix(0.260871 0.965374 0.965374 -0.260871 158.406 312.354)" fill="black"/>
    <circle cx="10" cy="10" r="10" transform="matrix(0.260871 0.965374 0.965374 -0.260871 209.756 344.996)" fill="black"/>
    <circle cx="10" cy="10" r="10" transform="matrix(0.260871 0.965374 0.965374 -0.260871 309.99 346.62)" fill="black"/>
    <circle cx="10" cy="10" r="10" transform="matrix(0.260871 0.965374 0.965374 -0.260871 346.699 284.814)" fill="black"/>
    <circle cx="10" cy="10" r="10" transform="matrix(0.260871 0.965374 0.965374 -0.260871 574.766 313.793)" fill="black"/>
    <path d="M685.239 362.875L754.026 767.108L393.313 657.611" stroke="black"/>
    <path d="M753.072 766.142L493.637 486.957" stroke="black"/>
    <path d="M146.864 171.011L13.8338 185.115L64.7154 247.508M146.864 171.011L284.398 198.754M146.864 171.011L184.846 255.613M146.864 171.011L64.7154 247.508M284.398 198.754L345.837 247.059L222.53 355.898M284.398 198.754L222.53 355.898M284.398 198.754L184.846 255.613M222.53 355.898L170.343 319.447M222.53 355.898L184.846 255.613M222.53 355.898L326.678 355.216M222.53 355.898L290.219 388.161M222.53 355.898L205.865 450.899M222.53 355.898L124.345 367.452M184.846 255.613L64.7154 247.508M184.846 255.613L170.343 319.447M64.7154 247.508L170.343 319.447M64.7154 247.508L124.345 367.452M64.7154 247.508L65.8213 338.33L124.345 367.452M170.343 319.447L124.345 367.452M326.678 355.216L359.197 296.499L375.251 378.289M326.678 355.216L375.251 378.289M326.678 355.216L290.219 388.161M375.251 378.289L408.502 428.595M375.251 378.289L501.506 403.463M375.251 378.289L588.033 320.789L501.506 403.463M290.219 388.161L205.865 450.899M290.219 388.161L332.635 441.607M205.865 450.899L124.345 367.452M205.865 450.899L332.635 441.607M205.865 450.899L291.211 523.326L349.561 535.02M332.635 441.607L408.502 428.595M332.635 441.607L349.561 535.02M408.502 428.595L501.506 403.463M408.502 428.595L349.561 535.02M501.506 403.463L467.356 475.727M501.506 403.463L676.718 363.605L496.574 485.931L439.964 573.002M467.356 475.727L349.561 535.02M467.356 475.727L439.964 573.002M349.561 535.02L439.964 573.002M349.561 535.02L383.246 628.897M439.964 573.002L383.246 628.897M439.964 573.002L390.79 656.815L383.246 628.897" stroke="black"/>
    <circle cx="10" cy="10" r="10" transform="matrix(0.260871 0.965374 0.965374 -0.260871 188.239 444.428)" fill="black"/>
    <circle cx="10" cy="10" r="10" transform="matrix(0.260871 0.965374 0.965374 -0.260871 271.184 382.071)" fill="black"/>
    <circle cx="10" cy="10" r="10" transform="matrix(0.260871 0.965374 0.965374 -0.260871 322.608 438.076)" fill="black"/>
    <circle cx="10" cy="10" r="10" transform="matrix(0.260871 0.965374 0.965374 -0.260871 362.324 372.421)" fill="black"/>
    <circle cx="10" cy="10" r="10" transform="matrix(0.260871 0.965374 0.965374 -0.260871 393.694 421.362)" fill="black"/>
    <circle cx="10" cy="10" r="10" transform="matrix(0.260871 0.965374 0.965374 -0.260871 485.289 396.61)" fill="black"/>
    <circle cx="10" cy="10" r="10" transform="matrix(0.260871 0.965374 0.965374 -0.260871 668.177 357.176)" fill="black"/>
    <circle cx="10" cy="10" r="10" transform="matrix(0.260871 0.965374 0.965374 -0.260871 482.081 479.861)" fill="black"/>
    <circle cx="10" cy="10" r="10" transform="matrix(0.260871 0.965374 0.965374 -0.260871 454.505 467.342)" fill="black"/>
    <circle cx="10" cy="10" r="10" transform="matrix(0.260871 0.965374 0.965374 -0.260871 425.314 566.351)" fill="black"/>
    <circle cx="10" cy="10" r="10" transform="matrix(0.260871 0.965374 0.965374 -0.260871 379.82 649.794)" fill="black"/>
    <circle cx="10" cy="10" r="10" transform="matrix(0.260871 0.965374 0.965374 -0.260871 276.951 515.321)" fill="black"/>
    <circle cx="10" cy="10" r="10" transform="matrix(0.260871 0.965374 0.965374 -0.260871 335.226 529.532)" fill="black"/>
    <circle cx="10" cy="10" r="10" transform="matrix(0.260871 0.965374 0.965374 -0.260871 107.191 362.728)" fill="black"/>
    <circle cx="10" cy="10" r="10" transform="matrix(0.260871 0.965374 0.965374 -0.260871 50.4662 331.871)" fill="black"/>
    <circle cx="10" cy="10" r="10" transform="matrix(0.260871 0.965374 0.965374 -0.260871 330.041 240.241)" fill="black"/>
    <circle cx="10" cy="10" r="10" transform="matrix(0.260871 0.965374 0.965374 -0.260871 271.552 189.575)" fill="black"/>
</svg>
