<svg width="52" height="50" viewBox="0 0 52 50" fill="none" xmlns="http://www.w3.org/2000/svg">
    <path d="M2.66699 23.9999C2.66699 15.2009 2.66699 10.8003 5.40166 8.06792C8.13399 5.33325 12.5347 5.33325 21.3337 5.33325H30.667C39.466 5.33325 43.8667 5.33325 46.599 8.06792C49.3337 10.8003 49.3337 15.2009 49.3337 23.9999V28.6666C49.3337 37.4656 49.3337 41.8662 46.599 44.5986C43.8667 47.3332 39.466 47.3333 30.667 47.3333H21.3337C12.5347 47.3333 8.13399 47.3332 5.40166 44.5986C2.66699 41.8662 2.66699 37.4656 2.66699 28.6666V23.9999Z" stroke="#6EEC4E" stroke-width="3.5"/>
    <path d="M14.333 5.33325V1.83325M37.6663 5.33325V1.83325M3.83301 16.9999H48.1663" stroke="#6EEC4E" stroke-width="3.5" stroke-linecap="round"/>
    <path d="M40.001 35.6664C40.001 36.2853 39.7551 36.8788 39.3176 37.3163C38.88 37.7539 38.2865 37.9998 37.6676 37.9998C37.0488 37.9998 36.4553 37.7539 36.0177 37.3163C35.5801 36.8788 35.3343 36.2853 35.3343 35.6664C35.3343 35.0476 35.5801 34.4541 36.0177 34.0165C36.4553 33.5789 37.0488 33.3331 37.6676 33.3331C38.2865 33.3331 38.88 33.5789 39.3176 34.0165C39.7551 34.4541 40.001 35.0476 40.001 35.6664ZM40.001 26.3331C40.001 26.9519 39.7551 27.5454 39.3176 27.983C38.88 28.4206 38.2865 28.6664 37.6676 28.6664C37.0488 28.6664 36.4553 28.4206 36.0177 27.983C35.5801 27.5454 35.3343 26.9519 35.3343 26.3331C35.3343 25.7143 35.5801 25.1208 36.0177 24.6832C36.4553 24.2456 37.0488 23.9998 37.6676 23.9998C38.2865 23.9998 38.88 24.2456 39.3176 24.6832C39.7551 25.1208 40.001 25.7143 40.001 26.3331ZM28.3343 35.6664C28.3343 36.2853 28.0885 36.8788 27.6509 37.3163C27.2133 37.7539 26.6198 37.9998 26.001 37.9998C25.3821 37.9998 24.7886 37.7539 24.3511 37.3163C23.9135 36.8788 23.6676 36.2853 23.6676 35.6664C23.6676 35.0476 23.9135 34.4541 24.3511 34.0165C24.7886 33.5789 25.3821 33.3331 26.001 33.3331C26.6198 33.3331 27.2133 33.5789 27.6509 34.0165C28.0885 34.4541 28.3343 35.0476 28.3343 35.6664ZM28.3343 26.3331C28.3343 26.9519 28.0885 27.5454 27.6509 27.983C27.2133 28.4206 26.6198 28.6664 26.001 28.6664C25.3821 28.6664 24.7886 28.4206 24.3511 27.983C23.9135 27.5454 23.6676 26.9519 23.6676 26.3331C23.6676 25.7143 23.9135 25.1208 24.3511 24.6832C24.7886 24.2456 25.3821 23.9998 26.001 23.9998C26.6198 23.9998 27.2133 24.2456 27.6509 24.6832C28.0885 25.1208 28.3343 25.7143 28.3343 26.3331ZM16.6676 35.6664C16.6676 36.2853 16.4218 36.8788 15.9842 37.3163C15.5466 37.7539 14.9531 37.9998 14.3343 37.9998C13.7155 37.9998 13.122 37.7539 12.6844 37.3163C12.2468 36.8788 12.001 36.2853 12.001 35.6664C12.001 35.0476 12.2468 34.4541 12.6844 34.0165C13.122 33.5789 13.7155 33.3331 14.3343 33.3331C14.9531 33.3331 15.5466 33.5789 15.9842 34.0165C16.4218 34.4541 16.6676 35.0476 16.6676 35.6664ZM16.6676 26.3331C16.6676 26.9519 16.4218 27.5454 15.9842 27.983C15.5466 28.4206 14.9531 28.6664 14.3343 28.6664C13.7155 28.6664 13.122 28.4206 12.6844 27.983C12.2468 27.5454 12.001 26.9519 12.001 26.3331C12.001 25.7143 12.2468 25.1208 12.6844 24.6832C13.122 24.2456 13.7155 23.9998 14.3343 23.9998C14.9531 23.9998 15.5466 24.2456 15.9842 24.6832C16.4218 25.1208 16.6676 25.7143 16.6676 26.3331Z" fill="#6EEC4E"/>
</svg>
