<svg width="56" height="56" viewBox="0 0 56 56" fill="none" xmlns="http://www.w3.org/2000/svg">
    <g clip-path="url(#clip0_547_508)">
        <path d="M-1 17.9545C-1 15.5133 -0.0302384 13.1721 1.69595 11.4459C3.42214 9.71976 5.76335 8.75 8.20455 8.75H47.0682C49.5094 8.75 51.8506 9.71976 53.5768 11.4459C55.303 13.1721 56.2727 15.5133 56.2727 17.9545V44.5455C56.2727 46.9866 55.303 49.3279 53.5768 51.0541C51.8506 52.7802 49.5094 53.75 47.0682 53.75H8.20455C5.76335 53.75 3.42214 52.7802 1.69595 51.0541C-0.0302384 49.3279 -1 46.9866 -1 44.5455V17.9545ZM8.20455 12.8409C6.84832 12.8409 5.54765 13.3797 4.58866 14.3387C3.62967 15.2977 3.09091 16.5983 3.09091 17.9545V21.0227H52.1818V17.9545C52.1818 16.5983 51.6431 15.2977 50.6841 14.3387C49.7251 13.3797 48.4244 12.8409 47.0682 12.8409H8.20455ZM3.09091 44.5455C3.09091 45.9017 3.62967 47.2023 4.58866 48.1613C5.54765 49.1203 6.84832 49.6591 8.20455 49.6591H47.0682C48.4244 49.6591 49.7251 49.1203 50.6841 48.1613C51.6431 47.2023 52.1818 45.9017 52.1818 44.5455V25.1136H3.09091V44.5455ZM37.8636 37.3864H44C44.5425 37.3864 45.0628 37.6019 45.4464 37.9855C45.83 38.3691 46.0455 38.8893 46.0455 39.4318C46.0455 39.9743 45.83 40.4946 45.4464 40.8782C45.0628 41.2618 44.5425 41.4773 44 41.4773H37.8636C37.3211 41.4773 36.8009 41.2618 36.4173 40.8782C36.0337 40.4946 35.8182 39.9743 35.8182 39.4318C35.8182 38.8893 36.0337 38.3691 36.4173 37.9855C36.8009 37.6019 37.3211 37.3864 37.8636 37.3864Z" fill="#6EEC4E"/>
    </g>
    <defs>
        <clipPath id="clip0_547_508">
            <rect width="56" height="56" fill="white"/>
        </clipPath>
    </defs>
</svg>
