<svg width="36" height="38" viewBox="0 0 36 38" fill="none" xmlns="http://www.w3.org/2000/svg">
    <path d="M34.3972 17.9284L19.0806 33.2451C17.2042 35.1215 14.6592 36.1756 12.0056 36.1756C9.35192 36.1756 6.80697 35.1215 4.93056 33.2451C3.05415 31.3687 2 28.8237 2 26.1701C2 23.5164 3.05415 20.9715 4.93056 19.0951L20.2472 3.77841C21.4982 2.52748 23.1948 1.82471 24.9639 1.82471C26.733 1.82471 28.4296 2.52748 29.6806 3.77841C30.9315 5.02935 31.6343 6.72599 31.6343 8.49508C31.6343 10.2642 30.9315 11.9608 29.6806 13.2117L14.3472 28.5284C14.0375 28.8381 13.6699 29.0838 13.2652 29.2514C12.8606 29.419 12.4269 29.5053 11.9889 29.5053C11.5509 29.5053 11.1172 29.419 10.7126 29.2514C10.3079 29.0838 9.94026 28.8381 9.63056 28.5284C9.32086 28.2187 9.07519 27.851 8.90758 27.4464C8.73997 27.0418 8.65371 26.6081 8.65371 26.1701C8.65371 25.7321 8.73997 25.2984 8.90758 24.8938C9.07519 24.4891 9.32086 24.1214 9.63056 23.8117L23.7806 9.67841" stroke="#0B0F09" stroke-width="2.5" stroke-linecap="round" stroke-linejoin="round"/>
</svg>
