<svg width="32" height="32" viewBox="0 0 32 32" fill="none" xmlns="http://www.w3.org/2000/svg">
    <g clip-path="url(#clip0_612_3)">
        <path fill-rule="evenodd" clip-rule="evenodd" d="M16.0001 18.8294L23.0708 25.9C23.446 26.2752 23.9549 26.486 24.4855 26.486C25.0161 26.486 25.5249 26.2752 25.9001 25.9C26.2753 25.5248 26.4861 25.016 26.4861 24.4854C26.4861 23.9548 26.2753 23.4459 25.9001 23.0707L18.8268 16L25.8988 8.92936C26.0845 8.74358 26.2318 8.52305 26.3322 8.28035C26.4327 8.03766 26.4844 7.77755 26.4843 7.51489C26.4842 7.25222 26.4324 6.99214 26.3319 6.74949C26.2313 6.50684 26.0839 6.28638 25.8981 6.10069C25.7123 5.915 25.4918 5.76772 25.2491 5.66726C25.0064 5.5668 24.7463 5.51513 24.4837 5.51519C24.221 5.51525 23.9609 5.56705 23.7183 5.66762C23.4756 5.7682 23.2551 5.91558 23.0695 6.10136L16.0001 13.172L8.92946 6.10136C8.74505 5.91025 8.52443 5.75779 8.28048 5.65285C8.03652 5.54792 7.77411 5.49263 7.50855 5.4902C7.24299 5.48776 6.97961 5.53824 6.73377 5.63869C6.48793 5.73914 6.26456 5.88754 6.07669 6.07523C5.88881 6.26293 5.7402 6.48616 5.63953 6.73191C5.53885 6.97765 5.48812 7.24098 5.4903 7.50654C5.49248 7.7721 5.54753 8.03457 5.65223 8.27862C5.75693 8.52268 5.90919 8.74344 6.10012 8.92803L13.1735 16L6.10146 23.072C5.91053 23.2566 5.75827 23.4774 5.65357 23.7214C5.54886 23.9655 5.49382 24.2279 5.49164 24.4935C5.48945 24.7591 5.54018 25.0224 5.64086 25.2681C5.74154 25.5139 5.89015 25.7371 6.07802 25.9248C6.26589 26.1125 6.48927 26.2609 6.73511 26.3614C6.98094 26.4618 7.24433 26.5123 7.50988 26.5099C7.77544 26.5074 8.03785 26.4521 8.28181 26.3472C8.52577 26.2423 8.74639 26.0898 8.93079 25.8987L16.0001 18.8294Z" fill="white"/>
    </g>
    <defs>
        <clipPath id="clip0_612_3">
            <rect width="32" height="32" fill="white"/>
        </clipPath>
    </defs>
</svg>
