<svg width="38" height="38" viewBox="0 0 38 38" fill="none" xmlns="http://www.w3.org/2000/svg">
    <path fill-rule="evenodd" clip-rule="evenodd" d="M19.0003 0.280029C13.9171 0.280029 13.2792 0.301629 11.2819 0.392349C9.28891 0.483069 7.92811 0.799869 6.73723 1.26211C5.48834 1.73248 4.35709 2.46961 3.42235 3.42211C2.46968 4.35726 1.73254 5.48903 1.26235 6.73843C0.800114 7.92787 0.484754 9.28867 0.392594 11.2816C0.301874 13.2789 0.280273 13.9168 0.280273 19C0.280273 24.0832 0.301874 24.7211 0.392594 26.7184C0.483314 28.7114 0.800114 30.0722 1.26235 31.2616C1.74187 32.4928 2.38123 33.5368 3.42235 34.5779C4.35709 35.5304 5.48834 36.2676 6.73723 36.7379C7.92811 37.1987 9.28891 37.5155 11.2819 37.6077C13.2792 37.6984 13.9171 37.72 19.0003 37.72C24.0835 37.72 24.7214 37.6984 26.7187 37.6077C28.7116 37.517 30.0724 37.2002 31.2619 36.7379C32.5113 36.2678 33.6431 35.5307 34.5782 34.5779C35.5309 33.6428 36.268 32.511 36.7382 31.2616C37.199 30.0722 37.5158 28.7114 37.608 26.7184C37.6987 24.7211 37.7203 24.0832 37.7203 19C37.7203 13.9168 37.6987 13.2789 37.608 11.2816C37.5172 9.28867 37.2004 7.92787 36.7368 6.73843C36.267 5.48916 35.5303 4.3574 34.5782 3.42211C33.6431 2.4694 32.5113 1.73225 31.2619 1.26211C30.0724 0.80131 28.7116 0.484509 26.7187 0.392349C24.7214 0.301629 24.0835 0.280029 19.0003 0.280029ZM19.0003 3.65251C23.9985 3.65251 24.5904 3.67267 26.5646 3.76195C28.3891 3.84547 29.3812 4.15075 30.0408 4.40707C30.9148 4.74691 31.5384 5.15155 32.1936 5.80675C32.8488 6.46195 33.2534 7.08547 33.5932 7.95955C33.8496 8.61907 34.1548 9.60979 34.2384 11.4357C34.3276 13.4085 34.3478 14.0018 34.3478 19C34.3478 23.9983 34.3276 24.5901 34.2384 26.5643C34.1548 28.3903 33.8496 29.381 33.5932 30.0405C33.2934 30.8537 32.8151 31.5893 32.1936 32.1933C31.5896 32.8149 30.8539 33.2932 30.0408 33.593C29.3812 33.8493 28.3891 34.1546 26.5646 34.2381C24.5918 34.3274 23.9985 34.3475 19.0003 34.3475C14.002 34.3475 13.4088 34.3274 11.436 34.2381C9.61003 34.1546 8.61931 33.8493 7.95979 33.593C7.14661 33.2932 6.41098 32.8149 5.80699 32.1933C5.18553 31.5892 4.70727 30.8536 4.40731 30.0405C4.15099 29.381 3.84571 28.3903 3.76219 26.5643C3.67291 24.5915 3.65275 23.9983 3.65275 19C3.65275 14.0018 3.67291 13.4099 3.76219 11.4357C3.84571 9.60979 4.15099 8.61907 4.40731 7.95955C4.74715 7.08547 5.15179 6.46195 5.80699 5.80675C6.41101 5.18521 7.14664 4.70693 7.95979 4.40707C8.61931 4.15075 9.61003 3.84547 11.436 3.76195C13.4088 3.67267 14.002 3.65251 19.0003 3.65251Z" fill="white"/>
    <path fill-rule="evenodd" clip-rule="evenodd" d="M19.0002 8.92001C16.3268 8.92001 13.7629 9.98201 11.8725 11.8724C9.98216 13.7627 8.92017 16.3266 8.92017 19C8.92017 21.6734 9.98216 24.2373 11.8725 26.1276C13.7629 28.018 16.3268 29.08 19.0002 29.08C21.6735 29.08 24.2374 28.018 26.1278 26.1276C28.0182 24.2373 29.0802 21.6734 29.0802 19C29.0802 16.3266 28.0182 13.7627 26.1278 11.8724C24.2374 9.98201 21.6735 8.92001 19.0002 8.92001ZM19.0002 25.48C17.2816 25.48 15.6334 24.7973 14.4181 23.5821C13.2029 22.3668 12.5202 20.7186 12.5202 19C12.5202 17.2814 13.2029 15.6332 14.4181 14.418C15.6334 13.2027 17.2816 12.52 19.0002 12.52C20.7188 12.52 22.367 13.2027 23.5822 14.418C24.7975 15.6332 25.4802 17.2814 25.4802 19C25.4802 20.7186 24.7975 22.3668 23.5822 23.5821C22.367 24.7973 20.7188 25.48 19.0002 25.48ZM31.5282 9.06401C31.5282 9.36658 31.4686 9.66618 31.3528 9.94571C31.237 10.2252 31.0673 10.4792 30.8533 10.6932C30.6394 10.9071 30.3854 11.0768 30.1059 11.1926C29.8263 11.3084 29.5267 11.368 29.2242 11.368C28.9216 11.368 28.622 11.3084 28.3425 11.1926C28.0629 11.0768 27.8089 10.9071 27.595 10.6932C27.381 10.4792 27.2113 10.2252 27.0955 9.94571C26.9798 9.66618 26.9202 9.36658 26.9202 9.06401C26.9202 8.45295 27.1629 7.86692 27.595 7.43484C28.0271 7.00275 28.6131 6.76001 29.2242 6.76001C29.8352 6.76001 30.4213 7.00275 30.8533 7.43484C31.2854 7.86692 31.5282 8.45295 31.5282 9.06401Z" fill="white"/>
</svg>