<svg width="40" height="38" viewBox="0 0 40 38" fill="none" xmlns="http://www.w3.org/2000/svg">
    <path d="M32.5 0.25C34.1576 0.25 35.7473 0.90848 36.9194 2.08058C38.0915 3.25269 38.75 4.8424 38.75 6.5V31.5C38.75 33.1576 38.0915 34.7473 36.9194 35.9194C35.7473 37.0915 34.1576 37.75 32.5 37.75H7.5C5.8424 37.75 4.25269 37.0915 3.08058 35.9194C1.90848 34.7473 1.25 33.1576 1.25 31.5V6.5C1.25 4.8424 1.90848 3.25269 3.08058 2.08058C4.25269 0.90848 5.8424 0.25 7.5 0.25H32.5ZM32.5 4.41667H7.5C6.94747 4.41667 6.41756 4.63616 6.02686 5.02686C5.63616 5.41756 5.41667 5.94747 5.41667 6.5V31.5C5.41667 32.0525 5.63616 32.5824 6.02686 32.9731C6.41756 33.3638 6.94747 33.5833 7.5 33.5833H32.5C33.0525 33.5833 33.5824 33.3638 33.9731 32.9731C34.3638 32.5824 34.5833 32.0525 34.5833 31.5V6.5C34.5833 5.94747 34.3638 5.41756 33.9731 5.02686C33.5824 4.63616 33.0525 4.41667 32.5 4.41667ZM11.6667 14.8333C12.1769 14.8334 12.6695 15.0207 13.0508 15.3598C13.4321 15.6989 13.6757 16.1661 13.7354 16.6729L13.75 16.9167V27.3333C13.7494 27.8643 13.5461 28.3751 13.1816 28.7612C12.817 29.1473 12.3188 29.3797 11.7888 29.4108C11.2587 29.4419 10.7367 29.2694 10.3295 28.9286C9.92232 28.5878 9.66063 28.1044 9.59792 27.5771L9.58333 27.3333V16.9167C9.58333 16.3641 9.80283 15.8342 10.1935 15.4435C10.5842 15.0528 11.1141 14.8333 11.6667 14.8333ZM17.9167 12.75C18.4046 12.7499 18.877 12.9211 19.2517 13.2337C19.6263 13.5462 19.8793 13.9804 19.9667 14.4604C20.3859 14.2173 20.8193 13.9996 21.2646 13.8083C22.6542 13.2146 24.7354 12.8875 26.6146 13.4771C27.6 13.7896 28.5896 14.3729 29.3229 15.3667C29.9792 16.2521 30.3333 17.3292 30.4042 18.5396L30.4167 19V27.3333C30.4161 27.8643 30.2128 28.3751 29.8482 28.7612C29.4837 29.1473 28.9855 29.3797 28.4554 29.4108C27.9253 29.4419 27.4034 29.2694 26.9962 28.9286C26.589 28.5878 26.3273 28.1044 26.2646 27.5771L26.25 27.3333V19C26.25 18.3125 26.0833 17.9917 25.975 17.8437C25.8195 17.6503 25.6052 17.5128 25.3646 17.4521C24.6396 17.2229 23.5958 17.3438 22.9021 17.6396C21.8604 18.0854 20.9062 18.7854 20.2563 19.4333L20 19.7083V27.3333C19.9994 27.8643 19.7961 28.3751 19.4316 28.7612C19.067 29.1473 18.5688 29.3797 18.0388 29.4108C17.5087 29.4419 16.9867 29.2694 16.5795 28.9286C16.1723 28.5878 15.9106 28.1044 15.8479 27.5771L15.8333 27.3333V14.8333C15.8333 14.2808 16.0528 13.7509 16.4435 13.3602C16.8342 12.9695 17.3641 12.75 17.9167 12.75ZM11.6667 8.58333C12.2192 8.58333 12.7491 8.80283 13.1398 9.19353C13.5305 9.58423 13.75 10.1141 13.75 10.6667C13.75 11.2192 13.5305 11.7491 13.1398 12.1398C12.7491 12.5305 12.2192 12.75 11.6667 12.75C11.1141 12.75 10.5842 12.5305 10.1935 12.1398C9.80283 11.7491 9.58333 11.2192 9.58333 10.6667C9.58333 10.1141 9.80283 9.58423 10.1935 9.19353C10.5842 8.80283 11.1141 8.58333 11.6667 8.58333Z" fill="white"/>
</svg>