<svg width="36" height="36" viewBox="0 0 36 36" fill="none" xmlns="http://www.w3.org/2000/svg">
    <path d="M16.4092 18L7.07846 8.67146C6.97386 8.56686 6.89089 8.44268 6.83428 8.30602C6.77767 8.16936 6.74854 8.02288 6.74854 7.87496C6.74854 7.72703 6.77767 7.58056 6.83428 7.44389C6.89089 7.30723 6.97386 7.18305 7.07846 7.07846C7.18305 6.97386 7.30723 6.89089 7.44389 6.83428C7.58056 6.77767 7.72703 6.74854 7.87496 6.74854C8.02288 6.74854 8.16936 6.77767 8.30602 6.83428C8.44268 6.89089 8.56686 6.97386 8.67146 7.07846L18 16.4092L27.3285 7.07846C27.5397 6.86721 27.8262 6.74854 28.125 6.74854C28.4237 6.74854 28.7102 6.86721 28.9215 7.07846C29.1327 7.2897 29.2514 7.57621 29.2514 7.87496C29.2514 8.1737 29.1327 8.46021 28.9215 8.67146L19.5907 18L28.9215 27.3285C29.1327 27.5397 29.2514 27.8262 29.2514 28.125C29.2514 28.4237 29.1327 28.7102 28.9215 28.9215C28.7102 29.1327 28.4237 29.2514 28.125 29.2514C27.8262 29.2514 27.5397 29.1327 27.3285 28.9215L18 19.5907L8.67146 28.9215C8.46021 29.1327 8.1737 29.2514 7.87496 29.2514C7.57621 29.2514 7.2897 29.1327 7.07846 28.9215C6.86721 28.7102 6.74854 28.4237 6.74854 28.125C6.74854 27.8262 6.86721 27.5397 7.07846 27.3285L16.4092 18Z" fill="white"/>
</svg>