<svg width="63" height="63" viewBox="0 0 63 63" fill="none" xmlns="http://www.w3.org/2000/svg">
    <path d="M47.8274 54.4688H15.1724C14.2621 54.4316 13.368 54.2153 12.5414 53.8323C11.7148 53.4493 10.9717 52.907 10.3549 52.2365C9.73805 51.566 9.25947 50.7805 8.94653 49.9248C8.63359 49.0692 8.49244 48.1602 8.53116 47.25V39.375C8.53116 38.8529 8.73858 38.3521 9.1078 37.9829C9.47701 37.6137 9.97777 37.4062 10.4999 37.4062C11.0221 37.4062 11.5228 37.6137 11.892 37.9829C12.2612 38.3521 12.4687 38.8529 12.4687 39.375V47.25C12.4009 48.0294 12.6357 48.805 13.1245 49.416C13.6132 50.0269 14.3184 50.4263 15.0937 50.5312H47.8274C48.6027 50.4263 49.3079 50.0269 49.7966 49.416C50.2854 48.805 50.5202 48.0294 50.4524 47.25V39.375C50.4524 38.8529 50.6598 38.3521 51.0291 37.9829C51.3983 37.6137 51.899 37.4062 52.4212 37.4062C52.9433 37.4062 53.4441 37.6137 53.8133 37.9829C54.1825 38.3521 54.3899 38.8529 54.3899 39.375V47.25C54.4685 49.0753 53.8231 50.8579 52.5941 52.2098C51.3651 53.5617 49.652 54.3736 47.8274 54.4688Z" fill="black"/>
    <path d="M31.5 41.3435C31.2413 41.3447 30.985 41.2942 30.7461 41.1951C30.5072 41.0959 30.2905 40.95 30.1087 40.766L19.6087 30.266C19.261 29.8928 19.0716 29.3991 19.0806 28.8891C19.0896 28.3791 19.2962 27.8924 19.657 27.5317C20.0177 27.171 20.5043 26.9644 21.0143 26.9554C21.5244 26.9464 22.018 27.1357 22.3912 27.4835L31.5 36.5922L40.6087 27.4835C40.9819 27.1357 41.4755 26.9464 41.9856 26.9554C42.4956 26.9644 42.9823 27.171 43.343 27.5317C43.7037 27.8924 43.9103 28.3791 43.9193 28.8891C43.9283 29.3991 43.739 29.8928 43.3912 30.266L32.8912 40.766C32.7094 40.95 32.4928 41.0959 32.2538 41.1951C32.0149 41.2942 31.7586 41.3447 31.5 41.3435Z" fill="black"/>
    <path d="M31.5 41.3438C30.98 41.337 30.4832 41.1273 30.1154 40.7596C29.7477 40.3918 29.538 39.895 29.5312 39.375V10.5C29.5312 9.97786 29.7387 9.4771 30.1079 9.10788C30.4771 8.73867 30.9779 8.53125 31.5 8.53125C32.0221 8.53125 32.5229 8.73867 32.8921 9.10788C33.2613 9.4771 33.4688 9.97786 33.4688 10.5V39.375C33.462 39.895 33.2523 40.3918 32.8846 40.7596C32.5168 41.1273 32.02 41.337 31.5 41.3438Z" fill="black"/>
</svg>
