<svg width="35" height="38" viewBox="0 0 35 38" fill="none" xmlns="http://www.w3.org/2000/svg">
    <path d="M10.6066 8.59492C10.2891 8.54871 9.96537 8.61261 9.68924 8.776H9.66533C9.0247 9.15184 8.44728 9.62505 7.95528 10.182C7.54528 10.6552 7.3232 11.1335 7.26512 11.5948C7.23095 11.8681 7.25487 12.1448 7.33516 12.4062L7.36591 12.4233C7.82716 13.778 8.42849 15.0815 9.16308 16.308C10.1103 18.0309 11.2759 19.6243 12.631 21.0487L12.672 21.1068L12.7369 21.1546L12.7762 21.2007L12.824 21.2417C14.2534 22.6009 15.8506 23.7721 17.5766 24.7267C19.5497 25.8013 20.7473 26.3086 21.4665 26.5205V26.5307C21.6766 26.5956 21.868 26.6247 22.061 26.6247C22.6735 26.5794 23.2532 26.3304 23.7078 25.9174C24.263 25.4254 24.7328 24.8463 25.0984 24.2023V24.1903C25.4418 23.5411 25.3256 22.9295 24.8302 22.5144C23.8351 21.6449 22.7591 20.8727 21.6168 20.2082C20.8515 19.793 20.0742 20.0442 19.7599 20.4644L19.0885 21.3118C18.7434 21.732 18.1182 21.6739 18.1182 21.6739L18.1011 21.6842C13.4356 20.4935 12.1902 15.7699 12.1902 15.7699C12.1902 15.7699 12.1322 15.1276 12.5644 14.7996L13.4049 14.1231C13.808 13.7951 14.0882 13.0195 13.656 12.2542C12.9959 11.1109 12.2252 10.0352 11.3549 9.0425C11.1651 8.80888 10.8989 8.64977 10.6032 8.59321L10.6066 8.59492ZM18.4906 6.5415C18.264 6.5415 18.0468 6.6315 17.8866 6.79168C17.7264 6.95187 17.6364 7.16913 17.6364 7.39567C17.6364 7.62221 17.7264 7.83947 17.8866 7.99966C18.0468 8.15984 18.264 8.24984 18.4906 8.24984C20.6499 8.24984 22.4437 8.95538 23.8633 10.3084C24.5927 11.0481 25.1616 11.9245 25.534 12.8845C25.9082 13.8463 26.079 14.873 26.0346 15.9015C26.0251 16.128 26.1059 16.349 26.2594 16.516C26.4128 16.6829 26.6263 16.782 26.8529 16.7915C27.0794 16.801 27.3004 16.7201 27.4674 16.5667C27.6343 16.4132 27.7334 16.1998 27.7429 15.9732C27.7959 14.7082 27.5859 13.4459 27.1262 12.2661C26.6645 11.0808 25.9644 10.0028 25.0694 9.09888L25.0523 9.0818C23.291 7.39909 21.0633 6.5415 18.4906 6.5415Z" fill="white"/>
    <path d="M18.4313 9.35034C18.2048 9.35034 17.9875 9.44033 17.8273 9.60052C17.6671 9.76071 17.5771 9.97797 17.5771 10.2045C17.5771 10.431 17.6671 10.6483 17.8273 10.8085C17.9875 10.9687 18.2048 11.0587 18.4313 11.0587H18.4604C20.0184 11.1697 21.1527 11.689 21.9471 12.5415C22.7619 13.4196 23.1839 14.5112 23.1514 15.8608C23.1462 16.0873 23.2312 16.3067 23.3877 16.4705C23.5442 16.6344 23.7594 16.7294 23.986 16.7346C24.2125 16.7398 24.4318 16.6548 24.5957 16.4983C24.7596 16.3418 24.8546 16.1266 24.8598 15.9001C24.9008 14.1285 24.3302 12.5996 23.1993 11.3798V11.3764C22.0427 10.1362 20.4557 9.48017 18.5458 9.35205L18.5167 9.34863L18.4313 9.35034Z" fill="white"/>
    <path d="M18.3985 12.2118C18.2842 12.2017 18.169 12.2148 18.0598 12.2502C17.9507 12.2856 17.8498 12.3426 17.7632 12.4179C17.6765 12.4932 17.606 12.5851 17.5557 12.6883C17.5054 12.7914 17.4764 12.9036 17.4704 13.0182C17.4644 13.1328 17.4816 13.2474 17.5209 13.3553C17.5602 13.4631 17.6209 13.5619 17.6992 13.6457C17.7775 13.7296 17.8719 13.7968 17.9768 13.8434C18.0817 13.8899 18.1949 13.9149 18.3096 13.9167C19.0237 13.9543 19.4799 14.1696 19.7669 14.4583C20.0556 14.7487 20.2708 15.2151 20.3101 15.9445C20.3122 16.0591 20.3374 16.1722 20.3842 16.2769C20.4309 16.3815 20.4982 16.4757 20.5822 16.5539C20.6661 16.632 20.7649 16.6924 20.8726 16.7315C20.9804 16.7706 21.0949 16.7877 21.2094 16.7816C21.3239 16.7755 21.436 16.7464 21.539 16.6961C21.642 16.6458 21.7339 16.5753 21.809 16.4887C21.8842 16.4021 21.9412 16.3013 21.9766 16.1923C22.012 16.0832 22.025 15.9682 22.015 15.854C21.9604 14.829 21.6392 13.9236 20.9815 13.2573C20.3204 12.5911 19.4201 12.2665 18.3985 12.2118Z" fill="white"/>
    <path fill-rule="evenodd" clip-rule="evenodd" d="M9.07295 2.07273C14.509 0.857594 20.1463 0.857594 25.5823 2.07273L26.1614 2.20085C27.7505 2.5561 29.21 3.34497 30.3777 4.47981C31.5454 5.61464 32.3756 7.05101 32.7761 8.62931C34.1559 14.0667 34.1559 19.7627 32.7761 25.2001C32.3756 26.7784 31.5454 28.2148 30.3777 29.3496C29.21 30.4845 27.7505 31.2734 26.1614 31.6286L25.5806 31.7567C22.1759 32.5181 18.6823 32.805 15.199 32.6092L10.6668 36.6648C10.496 36.8178 10.2872 36.9221 10.0622 36.9668C9.83729 37.0116 9.60447 36.9951 9.38805 36.9192C9.17164 36.8433 8.97956 36.7107 8.83189 36.5352C8.68421 36.3597 8.58634 36.1478 8.5485 35.9216L7.79854 31.4424C6.36043 30.9949 5.06112 30.1861 4.02478 29.0932C2.98843 28.0004 2.2497 26.66 1.87916 25.2001C0.499263 19.7627 0.499263 14.0667 1.87916 8.62931C2.27963 7.05101 3.10984 5.61464 4.27755 4.47981C5.44526 3.34497 6.90474 2.5561 8.49383 2.20085L9.07295 2.07273ZM25.0237 4.57202C19.9555 3.43906 14.6997 3.43906 9.63158 4.57202L9.05075 4.70185C7.92448 4.9541 6.89016 5.51358 6.06266 6.31816C5.23516 7.12274 4.64685 8.14094 4.36308 9.25968C3.08817 14.2834 3.08817 19.546 4.36308 24.5698C4.64699 25.6887 5.23555 26.7071 6.06337 27.5117C6.89119 28.3163 7.92587 28.8756 9.05245 29.1276L9.2062 29.1618C9.45493 29.2174 9.68141 29.3459 9.85669 29.531C10.032 29.716 10.1481 29.9491 10.1902 30.2004L10.6925 33.2037L13.8905 30.3422C14.0182 30.2276 14.1676 30.1398 14.3299 30.0841C14.4922 30.0283 14.664 30.0057 14.8352 30.0176C18.2502 30.2599 21.6824 30.0038 25.0237 29.2574L25.6028 29.1276C26.7294 28.8756 27.764 28.3163 28.5919 27.5117C29.4197 26.7071 30.0083 25.6887 30.2922 24.5698C31.5666 19.5473 31.5666 14.2839 30.2922 9.25968C30.0083 8.14072 29.4197 7.12237 28.5919 6.31777C27.764 5.51317 26.7294 4.95381 25.6028 4.70185L25.0237 4.57202Z" fill="white"/>
</svg>