<svg width="38" height="38" viewBox="0 0 38 38" fill="none" xmlns="http://www.w3.org/2000/svg">
    <path d="M10.299 30.9058L11.6263 31.6812C13.8646 32.987 16.4105 33.6723 19.0018 33.6668C21.9026 33.6668 24.7383 32.8066 27.1502 31.195C29.5621 29.5834 31.442 27.2928 32.5521 24.6128C33.6621 21.9328 33.9526 18.9838 33.3867 16.1388C32.8208 13.2937 31.4239 10.6804 29.3727 8.62918C27.3216 6.57801 24.7082 5.18115 21.8631 4.61523C19.0181 4.04931 16.0691 4.33976 13.3891 5.44985C10.7091 6.55993 8.41853 8.4398 6.80693 10.8517C5.19534 13.2636 4.33515 16.0993 4.33515 19.0001C4.3298 21.5922 5.01582 24.1388 6.32249 26.3774L7.09615 27.7047L5.89899 32.1066L10.299 30.9058ZM0.675819 37.3334L3.15449 28.2254C1.52091 25.4258 0.662807 22.2414 0.668485 19.0001C0.668485 8.87458 8.87632 0.666748 19.0018 0.666748C29.1273 0.666748 37.3352 8.87458 37.3352 19.0001C37.3352 29.1256 29.1273 37.3334 19.0018 37.3334C15.7619 37.339 12.5789 36.4816 9.78015 34.8493L0.675819 37.3334ZM12.3853 10.3981C12.6322 10.381 12.8785 10.3785 13.1242 10.3907C13.2232 10.3981 13.3222 10.4079 13.4212 10.4201C13.7127 10.4531 14.0335 10.6309 14.1417 10.8766C14.688 12.1171 15.2184 13.3638 15.733 14.6166C15.8467 14.8952 15.7788 15.2527 15.5625 15.6011C15.4525 15.7789 15.2802 16.0282 15.0803 16.2831C14.8732 16.5489 14.4277 17.0366 14.4277 17.0366C14.4277 17.0366 14.2462 17.2529 14.3158 17.5224C14.3415 17.6251 14.4258 17.7736 14.5028 17.8983L14.611 18.0724C15.0803 18.8553 15.711 19.6491 16.481 20.3971C16.701 20.6098 16.9155 20.8279 17.1465 21.0314C18.0045 21.7886 18.9762 22.4064 20.0248 22.8647L20.034 22.8684C20.1898 22.9362 20.2687 22.9729 20.496 23.0701C20.6097 23.1178 20.7264 23.1581 20.8462 23.1911C20.8902 23.2033 20.9348 23.21 20.98 23.2113C21.0845 23.2152 21.1885 23.1936 21.2827 23.1482C21.377 23.1028 21.4587 23.0351 21.5208 22.9509C22.8463 21.3449 22.9692 21.2404 22.9783 21.2404V21.2441C23.0704 21.1579 23.1799 21.0925 23.2995 21.0523C23.4191 21.0121 23.5459 20.9981 23.6713 21.0112C23.7838 21.0161 23.8919 21.0406 23.9958 21.0846C24.9693 21.5301 26.5625 22.2249 26.5625 22.2249L27.6295 22.7034C27.8092 22.7896 27.9723 22.9931 27.9778 23.1892C27.9852 23.3121 27.9962 23.5101 27.954 23.8731C27.8953 24.3479 27.7523 24.9181 27.6093 25.2169C27.5102 25.4202 27.3803 25.6069 27.2243 25.7706C27.0392 25.9647 26.8367 26.1414 26.6193 26.2986C26.4678 26.411 26.3914 26.466 26.3902 26.4636C26.1622 26.6083 25.9279 26.7429 25.688 26.8669C25.2157 27.1171 24.6945 27.261 24.1608 27.2886C23.8217 27.3069 23.4825 27.3326 23.1415 27.3143C23.1268 27.3143 22.1002 27.1548 22.1002 27.1548C19.4937 26.469 17.0831 25.1847 15.0602 23.4038C14.6458 23.0389 14.2608 22.6466 13.8685 22.2561C12.2405 20.6336 11.0067 18.8827 10.2568 17.2291C9.87641 16.4173 9.67031 15.5349 9.65182 14.6386C9.64493 13.5253 10.0094 12.4415 10.6877 11.5586C10.8215 11.3862 10.948 11.2066 11.1662 10.9994C11.3972 10.7794 11.5457 10.6621 11.7052 10.5814C11.9179 10.4769 12.1489 10.4147 12.3853 10.3981Z" fill="white"/>
</svg>