<svg width="46" height="48" viewBox="0 0 46 48" fill="none" xmlns="http://www.w3.org/2000/svg">
    <path d="M44.3436 9.3292L21.3586 33.3346C21.146 33.5571 20.8934 33.7337 20.6154 33.8541C20.3373 33.9746 20.0392 34.0366 19.7382 34.0366C19.4372 34.0366 19.1391 33.9746 18.861 33.8541C18.583 33.7337 18.3304 33.5571 18.1178 33.3346L11.613 26.5411C11.4002 26.3188 11.2314 26.055 11.1163 25.7646C11.0011 25.4742 10.9418 25.163 10.9418 24.8487C10.9418 24.5344 11.0011 24.2231 11.1163 23.9328C11.2314 23.6424 11.4002 23.3785 11.613 23.1563C11.8258 22.9341 12.0785 22.7578 12.3565 22.6375C12.6345 22.5172 12.9325 22.4553 13.2335 22.4553C13.5344 22.4553 13.8324 22.5172 14.1104 22.6375C14.3885 22.7578 14.6411 22.9341 14.8539 23.1563L19.7267 28.2454L41.0797 5.94444C41.2924 5.7219 41.545 5.54535 41.823 5.42489C42.1011 5.30443 42.3992 5.24242 42.7002 5.24242C43.0012 5.24242 43.2993 5.30443 43.5773 5.42489C43.8554 5.54535 44.108 5.7219 44.3206 5.94444C45.24 6.88065 45.24 8.39299 44.3436 9.3292ZM31.6559 1.76751C27.7715 0.111137 23.3583 -0.464992 18.7613 0.399201C9.40647 2.15159 1.93635 10.0254 0.350392 19.7955C-0.278878 23.5179 -0.0583483 27.3429 0.994059 30.9595C2.04647 34.5762 3.90105 37.8824 6.40711 40.6097C8.91316 43.3369 12 45.4082 15.4167 46.6551C18.8334 47.902 22.4835 48.2894 26.0706 47.7858C35.1726 46.5615 42.8036 39.48 45.1941 30.2379C46.1134 26.7091 46.2054 23.3003 45.6767 20.1076C45.3779 18.1872 43.1024 17.443 41.7693 18.8113C41.2406 19.3634 41.0108 20.1796 41.1487 20.9478C41.6544 24.1405 41.4245 27.5493 39.9535 31.1741C37.2872 37.6796 31.495 42.4566 24.7604 43.1048C13.0381 44.233 3.31545 33.8627 4.7635 21.5479C5.75186 13.05 12.3026 6.13649 20.4163 4.96022C24.3927 4.38409 28.1622 5.17627 31.3801 6.90466C31.9226 7.20071 32.5556 7.25954 33.1396 7.06821C33.7237 6.87688 34.2111 6.45106 34.4946 5.88443C34.778 5.3178 34.8343 4.65677 34.6511 4.04677C34.468 3.43676 34.0602 2.92775 33.5177 2.6317C32.8971 2.34364 32.2765 2.03157 31.6559 1.76751Z" fill="#6EEC4E"/>
</svg>
