<svg width="688" height="708" viewBox="0 0 688 708" fill="none" xmlns="http://www.w3.org/2000/svg">
    <path d="M145.728 570.622L157.62 694.446L220.524 645.71M145.728 570.622L175.548 441.746M145.728 570.622L230.524 533.469M145.728 570.622L220.524 645.71M175.548 441.746L224.605 383.446L330.92 496.277M175.548 441.746L330.92 496.277M175.548 441.746L230.524 533.469M330.92 496.277L293.809 545.705M330.92 496.277L230.524 533.469M330.92 496.277L331.918 399.126M330.92 496.277L364.113 432.472M330.92 496.277L425.183 509.898M330.92 496.277L340.836 587.645M230.524 533.469L220.524 645.71M230.524 533.469L293.809 545.705M220.524 645.71L293.809 545.705M220.524 645.71L340.836 587.645M220.524 645.71L310.916 642.836L340.836 587.645M293.809 545.705L340.836 587.645M331.918 399.126L274.015 369.979L355.66 353.342M331.918 399.126L355.66 353.342M331.918 399.126L364.113 432.472M355.66 353.342L406.253 321.3M355.66 353.342L382.742 235.041M355.66 353.342L301.87 155.992L382.742 235.041M364.113 432.472L425.183 509.898M364.113 432.472L417.979 391.816M425.183 509.898L340.836 587.645M425.183 509.898L417.979 391.816M425.183 509.898L498.627 428.804L511.202 374.129M417.979 391.816L406.253 321.3M417.979 391.816L511.202 374.129M406.253 321.3L382.742 235.041M406.253 321.3L511.202 374.129M382.742 235.041L454.099 265.435M382.742 235.041L345.902 72.3842L464.723 237.969L550.453 289.017M454.099 265.435L511.202 374.129M454.099 265.435L550.453 289.017M511.202 374.129L550.453 289.017M511.202 374.129L605.158 340.799M550.453 289.017L605.158 340.799M550.453 289.017L633.06 333.194L605.158 340.799" stroke="black"/>
    <ellipse cx="9.64011" cy="10.837" rx="9.64011" ry="10.837" transform="matrix(0.964805 -0.262966 -0.262966 -0.964805 151.75 707.279)" fill="black"/>
    <ellipse cx="9.64011" cy="10.837" rx="9.64011" ry="10.837" transform="matrix(0.964805 -0.262966 -0.262966 -0.964805 138.648 585.891)" fill="black"/>
    <ellipse cx="9.64011" cy="10.837" rx="9.64011" ry="10.837" transform="matrix(0.964805 -0.262966 -0.262966 -0.964805 213.67 659.514)" fill="black"/>
    <ellipse cx="9.64011" cy="10.837" rx="9.64011" ry="10.837" transform="matrix(0.964805 -0.262966 -0.262966 -0.964805 221.832 551.985)" fill="black"/>
    <ellipse cx="9.64011" cy="10.837" rx="9.64011" ry="10.837" transform="matrix(0.964805 -0.262966 -0.262966 -0.964805 319.865 508.417)" fill="black"/>
    <ellipse cx="9.64011" cy="10.837" rx="9.64011" ry="10.837" transform="matrix(0.964805 -0.262966 -0.262966 -0.964805 418.46 526.475)" fill="black"/>
    <ellipse cx="9.64011" cy="10.837" rx="9.64011" ry="10.837" transform="matrix(0.964805 -0.262966 -0.262966 -0.964805 323.095 414.87)" fill="black"/>
    <ellipse cx="9.64011" cy="10.837" rx="9.64011" ry="10.837" transform="matrix(0.964805 -0.262966 -0.262966 -0.964805 357.746 450.355)" fill="black"/>
    <ellipse cx="9.64011" cy="10.837" rx="9.64011" ry="10.837" transform="matrix(0.964805 -0.262966 -0.262966 -0.964805 414.303 401.243)" fill="black"/>
    <ellipse cx="9.64011" cy="10.837" rx="9.64011" ry="10.837" transform="matrix(0.964805 -0.262966 -0.262966 -0.964805 262.154 383.742)" fill="black"/>
    <ellipse cx="9.64011" cy="10.837" rx="9.64011" ry="10.837" transform="matrix(0.964805 -0.262966 -0.262966 -0.964805 349.612 365.521)" fill="black"/>
    <ellipse cx="9.64011" cy="10.837" rx="9.64011" ry="10.837" transform="matrix(0.964805 -0.262966 -0.262966 -0.964805 398.817 335.262)" fill="black"/>
    <ellipse cx="9.64011" cy="10.837" rx="9.64011" ry="10.837" transform="matrix(0.964805 -0.262966 -0.262966 -0.964805 375.663 250.31)" fill="black"/>
    <ellipse cx="9.64011" cy="10.837" rx="9.64011" ry="10.837" transform="matrix(0.964805 -0.262966 -0.262966 -0.964805 294.754 164.251)" fill="black"/>
    <ellipse cx="9.64011" cy="10.837" rx="9.64011" ry="10.837" transform="matrix(0.964805 -0.262966 -0.262966 -0.964805 339.367 80.4844)" fill="black"/>
    <ellipse cx="9.64011" cy="10.837" rx="9.64011" ry="10.837" transform="matrix(0.964805 -0.262966 -0.262966 -0.964805 458.45 251.614)" fill="black"/>
    <ellipse cx="9.64011" cy="10.837" rx="9.64011" ry="10.837" transform="matrix(0.964805 -0.262966 -0.262966 -0.964805 445.548 277.595)" fill="black"/>
    <ellipse cx="9.64011" cy="10.837" rx="9.64011" ry="10.837" transform="matrix(0.964805 -0.262966 -0.262966 -0.964805 543.598 302.82)" fill="black"/>
    <ellipse cx="9.64011" cy="10.837" rx="9.64011" ry="10.837" transform="matrix(0.964805 -0.262966 -0.262966 -0.964805 625.896 343.571)" fill="black"/>
    <ellipse cx="9.64011" cy="10.837" rx="9.64011" ry="10.837" transform="matrix(0.964805 -0.262966 -0.262966 -0.964805 490.432 442.271)" fill="black"/>
    <ellipse cx="9.64011" cy="10.837" rx="9.64011" ry="10.837" transform="matrix(0.964805 -0.262966 -0.262966 -0.964805 505.51 387.615)" fill="black"/>
    <ellipse cx="9.64011" cy="10.837" rx="9.64011" ry="10.837" transform="matrix(0.964805 -0.262966 -0.262966 -0.964805 335.857 603.746)" fill="black"/>
    <ellipse cx="9.64011" cy="10.837" rx="9.64011" ry="10.837" transform="matrix(0.964805 -0.262966 -0.262966 -0.964805 304.24 657.293)" fill="black"/>
    <ellipse cx="9.64011" cy="10.837" rx="9.64011" ry="10.837" transform="matrix(0.964805 -0.262966 -0.262966 -0.964805 215.462 404.894)" fill="black"/>
    <ellipse cx="9.64011" cy="10.837" rx="9.64011" ry="10.837" transform="matrix(0.964805 -0.262966 -0.262966 -0.964805 166.143 457.649)" fill="black"/>
</svg>
