<svg width="32" height="32" viewBox="0 0 32 32" fill="none" xmlns="http://www.w3.org/2000/svg">
    <g clip-path="url(#clip0_557_1988)">
        <path
            d="M16 0C24.5472 0 32 7.056 32 15.2C32 23.2064 24.7152 29.5072 16 29.5072C14.1359 29.5085 12.2835 29.2136 10.512 28.6336C9.7696 29.3536 9.5152 29.5984 7.9392 31.1184C6.8032 31.976 5.7344 32.2672 4.7792 31.7264C3.816 31.1824 3.5264 30.1232 3.7232 28.728L4.3632 25.0176C1.584 22.4032 0 18.9472 0 15.2C0 7.056 7.4512 0 16 0ZM16 2.24C8.6624 2.24 2.24 8.32 2.24 15.2C2.24 18.472 3.6992 21.4848 6.272 23.728L6.304 23.7552L6.7792 24.168L6.672 24.792L6.4512 26.0784L6.392 26.4208L5.936 29.0736C5.90987 29.2523 5.89384 29.4323 5.888 29.6128V29.7648C5.888 29.7723 5.88693 29.7765 5.8848 29.7776C5.896 29.7616 6.1136 29.6928 6.4864 29.4208L9.9584 26.0512L10.6208 26.3008C12.3416 26.9425 14.1635 27.2703 16 27.2688C23.5456 27.2688 29.76 21.8928 29.76 15.2C29.76 8.3216 23.3376 2.24 16 2.24ZM8.3632 12.5008C8.68553 12.489 9.00693 12.5423 9.3082 12.6576C9.60946 12.7728 9.88441 12.9476 10.1166 13.1714C10.3488 13.3953 10.5335 13.6637 10.6597 13.9606C10.7858 14.2574 10.8508 14.5767 10.8508 14.8992C10.8508 15.2217 10.7858 15.541 10.6597 15.8378C10.5335 16.1347 10.3488 16.4031 10.1166 16.627C9.88441 16.8508 9.60946 17.0256 9.3082 17.1408C9.00693 17.2561 8.68553 17.3094 8.3632 17.2976C7.74227 17.2749 7.15433 17.0123 6.72306 16.565C6.2918 16.1177 6.05082 15.5205 6.05082 14.8992C6.05082 14.2779 6.2918 13.6807 6.72306 13.2334C7.15433 12.7861 7.74227 12.5235 8.3632 12.5008ZM16.36 12.5008C16.6823 12.489 17.0037 12.5423 17.305 12.6576C17.6063 12.7728 17.8812 12.9476 18.1134 13.1714C18.3456 13.3953 18.5303 13.6637 18.6565 13.9606C18.7826 14.2574 18.8476 14.5767 18.8476 14.8992C18.8476 15.2217 18.7826 15.541 18.6565 15.8378C18.5303 16.1347 18.3456 16.4031 18.1134 16.627C17.8812 16.8508 17.6063 17.0256 17.305 17.1408C17.0037 17.2561 16.6823 17.3094 16.36 17.2976C15.7391 17.2749 15.1511 17.0123 14.7199 16.565C14.2886 16.1177 14.0476 15.5205 14.0476 14.8992C14.0476 14.2779 14.2886 13.6807 14.7199 13.2334C15.1511 12.7861 15.7391 12.5235 16.36 12.5008ZM24.3552 12.5008C24.6775 12.489 24.9989 12.5423 25.3002 12.6576C25.6015 12.7728 25.8764 12.9476 26.1086 13.1714C26.3408 13.3953 26.5255 13.6637 26.6517 13.9606C26.7778 14.2574 26.8428 14.5767 26.8428 14.8992C26.8428 15.2217 26.7778 15.541 26.6517 15.8378C26.5255 16.1347 26.3408 16.4031 26.1086 16.627C25.8764 16.8508 25.6015 17.0256 25.3002 17.1408C24.9989 17.2561 24.6775 17.3094 24.3552 17.2976C23.7343 17.2749 23.1463 17.0123 22.7151 16.565C22.2838 16.1177 22.0428 15.5205 22.0428 14.8992C22.0428 14.2779 22.2838 13.6807 22.7151 13.2334C23.1463 12.7861 23.7343 12.5235 24.3552 12.5008Z"
            fill="#0B0F09"
            stroke="#000" 
            stroke-width="1" 
        />
    </g>
    <defs>
        <clipPath id="clip0_557_1988">
            <rect width="32" height="32" fill="white"/>
        </clipPath>
    </defs>
</svg>
