<svg width="26" height="21" viewBox="0 0 26 21" fill="none" xmlns="http://www.w3.org/2000/svg">
    <path d="M5.29744 20.7472C3.69356 20.7472 2.41478 20.2054 1.46112 19.1217C0.550811 18.038 0.0956546 16.7809 0.0956546 15.3504C0.0956546 14.3534 0.182351 13.4431 0.355744 12.6195C0.572485 11.7525 0.854248 10.7555 1.20103 9.62843L4.12704 0.395259H10.3692L7.05304 10.7338C8.1801 11.0806 9.02539 11.7525 9.58891 12.7495C10.1524 13.7032 10.4342 14.6785 10.4342 15.6755C10.4342 17.0626 9.91403 18.2547 8.87367 19.2517C7.87666 20.2487 6.68458 20.7472 5.29744 20.7472ZM19.9925 20.7472C18.3886 20.7472 17.1098 20.2054 16.1562 19.1217C15.2459 18.038 14.7907 16.7809 14.7907 15.3504C14.7907 14.3534 14.8774 13.4431 15.0508 12.6195C15.2675 11.7525 15.5493 10.7555 15.8961 9.62843L18.8221 0.395259H25.0642L21.7481 10.7338C22.8751 11.0806 23.7204 11.7525 24.284 12.7495C24.8475 13.7032 25.1293 14.6785 25.1293 15.6755C25.1293 17.0626 24.6091 18.2547 23.5687 19.2517C22.5717 20.2487 21.3796 20.7472 19.9925 20.7472Z" fill="black"/>
</svg>
