<svg width="46" height="46" viewBox="0 0 46 46" fill="none" xmlns="http://www.w3.org/2000/svg">
    <path d="M31.7509 0.250087C23.9984 0.250087 17.7509 6.49759 17.7509 14.2501C17.7509 14.6613 17.8157 15.2178 17.8612 15.7271L2.87592 30.7106C2.05737 31.5238 1.40776 32.4909 0.964472 33.5562C0.521182 34.6215 0.292969 35.764 0.292969 36.9178C0.292969 38.0717 0.521182 39.2141 0.964472 40.2794C1.40776 41.3447 2.05737 42.3118 2.87592 43.1251C3.68916 43.9436 4.65626 44.5932 5.72156 45.0365C6.78686 45.4798 7.92932 45.708 9.08317 45.708C10.237 45.708 11.3795 45.4798 12.4448 45.0365C13.5101 44.5932 14.4772 43.9436 15.2904 43.1251L30.2739 28.1398C30.7814 28.1853 31.3414 28.2501 31.7509 28.2501C39.5034 28.2501 45.7509 22.0026 45.7509 14.2501C45.7601 11.9943 45.1953 9.77332 44.1094 7.79609L43.0157 5.77309L41.3759 7.41459L33.8282 14.9046L31.0947 12.1711L38.5847 4.62509L40.2297 2.98359L38.2049 1.88984C36.2269 0.806111 34.0063 0.241928 31.7509 0.250087ZM31.7509 3.75009C32.6014 3.75009 33.2349 4.11759 33.9909 4.29784L27.3759 10.9128L26.1159 12.1728L27.3759 13.3751L32.6259 18.6251L33.8299 19.8851L35.0864 18.6251L41.7049 12.0101C41.8852 12.7661 42.2509 13.3996 42.2509 14.2501C42.2509 20.1476 37.6484 24.7501 31.7509 24.7501C31.0509 24.7501 30.4909 24.7501 30.0534 24.6398L29.1259 24.3668L28.4154 25.0791L12.8282 40.6663C10.6757 42.8188 7.49067 42.8188 5.33817 40.6663L5.28217 40.6103C3.18217 38.4578 3.19967 35.3078 5.33467 33.1728L20.9219 17.5873L21.6342 16.8768L21.3577 15.9493C21.2527 15.5118 21.2492 14.9518 21.2492 14.2518C21.2492 8.35434 25.8517 3.75184 31.7492 3.75184L31.7509 3.75009Z" fill="#6EEC4E"/>
</svg>
