<svg width="41" height="38" viewBox="0 0 41 38" fill="none" xmlns="http://www.w3.org/2000/svg">
    <path d="M39.0642 1.41955C38.5446 0.982363 37.9175 0.69586 37.2497 0.590543C36.5818 0.485226 35.8983 0.565037 35.2717 0.821479L2.56483 14.1766C1.86556 14.4677 1.27034 14.967 0.858114 15.6082C0.445892 16.2494 0.236164 17.0022 0.256754 17.7667C0.277344 18.5312 0.52728 19.2714 0.973401 19.8889C1.41952 20.5064 2.04074 20.9722 2.75464 21.2243L9.37048 23.552L13.0571 35.8864C13.1076 36.051 13.1807 36.2075 13.2743 36.3516C13.2889 36.3737 13.309 36.3885 13.3236 36.4125C13.4311 36.5639 13.561 36.6977 13.7086 36.8093C13.7499 36.842 13.7925 36.8728 13.8364 36.9016C14.0093 37.0177 14.2007 37.1026 14.4022 37.1527L14.4259 37.1545L14.4368 37.1601C14.5588 37.1848 14.6829 37.1972 14.8073 37.197L14.8402 37.1915C15.0271 37.1883 15.2124 37.1559 15.3895 37.0955C15.4315 37.0807 15.4662 37.0585 15.5063 37.0401C15.6388 36.9851 15.7644 36.9145 15.8805 36.8297C15.9729 36.7502 16.0654 36.6709 16.1579 36.5915L21.0892 31.0852L28.4442 36.8481C29.0916 37.3581 29.8885 37.6355 30.7091 37.6363C31.5691 37.6353 32.4027 37.3352 33.0699 36.7864C33.7371 36.2375 34.1975 35.4733 34.3738 34.6219L40.329 5.056C40.4637 4.39084 40.4171 3.70116 40.1944 3.06067C39.9716 2.42017 39.581 1.85293 39.0642 1.41955ZM15.5301 24.139C15.2773 24.3942 15.1046 24.7191 15.0336 25.073L14.4679 27.8493L13.037 23.0629L20.4559 19.1551L15.5301 24.139ZM30.6817 33.9297L21.9889 27.1183C21.6252 26.8344 21.1691 26.6996 20.7115 26.7406C20.2538 26.7817 19.8283 26.9956 19.5196 27.3398L17.9391 29.1027L18.4976 26.3578L31.4245 13.2832C31.7312 12.9711 31.9176 12.5584 31.95 12.1196C31.9825 11.6808 31.8588 11.2446 31.6014 10.8899C31.344 10.5351 30.9698 10.285 30.5461 10.1847C30.1225 10.0843 29.6774 10.1404 29.291 10.3427L10.7393 20.1112L3.94092 17.5953L36.7537 4.32133L30.6817 33.9297Z" fill="white"/>
</svg>